<svg width="41" height="56" viewBox="0 0 41 56" fill="none" xmlns="http://www.w3.org/2000/svg">
<rect x="2.50746" y="2.50748" width="37.6119" height="53.4925" fill="#C4C4C4"/>
<line x1="6.26867" y1="11.7353" x2="7.83583" y2="11.7353" stroke="#CECECF" stroke-width="1.60404"/>
<line x1="12.5373" y1="11.7353" x2="14.1045" y2="11.7353" stroke="#CECECF" stroke-width="1.60404"/>
<line x1="25.0746" y1="11.7353" x2="26.6418" y2="11.7353" stroke="#CECECF" stroke-width="1.60404"/>
<line x1="9.40301" y1="11.7353" x2="10.9702" y2="11.7353" stroke="#CECECF" stroke-width="1.60404"/>
<line x1="28.209" y1="11.7353" x2="29.7761" y2="11.7353" stroke="#CECECF" stroke-width="1.60404"/>
<line x1="7.83584" y1="11.7353" x2="9.40301" y2="11.7353" stroke="#F4F4F4" stroke-width="1.60404"/>
<line x1="26.6418" y1="11.7353" x2="28.209" y2="11.7353" stroke="#F4F4F4" stroke-width="1.60404"/>
<line x1="10.9702" y1="11.7353" x2="12.5373" y2="11.7353" stroke="#F4F4F4" stroke-width="1.60404"/>
<line x1="23.5075" y1="11.7353" x2="25.0746" y2="11.7353" stroke="#F4F4F4" stroke-width="1.60404"/>
<line x1="29.7761" y1="11.7353" x2="31.3433" y2="11.7353" stroke="#F4F4F4" stroke-width="1.60404"/>
<line x1="6.26867" y1="14.8696" x2="7.83583" y2="14.8696" stroke="#CECECF" stroke-width="1.60404"/>
<line x1="12.5373" y1="14.8696" x2="14.1045" y2="14.8696" stroke="#CECECF" stroke-width="1.60404"/>
<line x1="25.0746" y1="14.8696" x2="26.6418" y2="14.8696" stroke="#CECECF" stroke-width="1.60404"/>
<line x1="9.40301" y1="14.8696" x2="10.9702" y2="14.8696" stroke="#CECECF" stroke-width="1.60404"/>
<line x1="28.209" y1="14.8696" x2="29.7761" y2="14.8696" stroke="#CECECF" stroke-width="1.60404"/>
<line x1="7.83584" y1="14.8696" x2="9.40301" y2="14.8696" stroke="#F4F4F4" stroke-width="1.60404"/>
<line x1="26.6418" y1="14.8696" x2="28.209" y2="14.8696" stroke="#F4F4F4" stroke-width="1.60404"/>
<line x1="10.9702" y1="14.8696" x2="12.5373" y2="14.8696" stroke="#F4F4F4" stroke-width="1.60404"/>
<line x1="23.5075" y1="14.8696" x2="25.0746" y2="14.8696" stroke="#F4F4F4" stroke-width="1.60404"/>
<line x1="29.7761" y1="14.8696" x2="31.3433" y2="14.8696" stroke="#F4F4F4" stroke-width="1.60404"/>
<line x1="6.26867" y1="18.0039" x2="7.83583" y2="18.0039" stroke="#CECECF" stroke-width="1.60404"/>
<line x1="12.5373" y1="18.0039" x2="14.1045" y2="18.0039" stroke="#CECECF" stroke-width="1.60404"/>
<line x1="18.806" y1="18.0039" x2="20.3732" y2="18.0039" stroke="#CECECF" stroke-width="1.60404"/>
<line x1="25.0746" y1="18.0039" x2="26.6418" y2="18.0039" stroke="#CECECF" stroke-width="1.60404"/>
<line x1="9.40301" y1="18.0039" x2="10.9702" y2="18.0039" stroke="#CECECF" stroke-width="1.60404"/>
<line x1="15.6717" y1="18.0039" x2="17.2388" y2="18.0039" stroke="#CECECF" stroke-width="1.60404"/>
<line x1="21.9403" y1="18.0039" x2="23.5075" y2="18.0039" stroke="#CECECF" stroke-width="1.60404"/>
<line x1="28.209" y1="18.0039" x2="29.7761" y2="18.0039" stroke="#CECECF" stroke-width="1.60404"/>
<line x1="7.83584" y1="18.0039" x2="9.40301" y2="18.0039" stroke="#F4F4F4" stroke-width="1.60404"/>
<line x1="14.1045" y1="18.0039" x2="15.6717" y2="18.0039" stroke="#F4F4F4" stroke-width="1.60404"/>
<line x1="20.3732" y1="18.0039" x2="21.9403" y2="18.0039" stroke="#F4F4F4" stroke-width="1.60404"/>
<line x1="26.6418" y1="18.0039" x2="28.209" y2="18.0039" stroke="#F4F4F4" stroke-width="1.60404"/>
<line x1="10.9702" y1="18.0039" x2="12.5373" y2="18.0039" stroke="#F4F4F4" stroke-width="1.60404"/>
<line x1="17.2388" y1="18.0039" x2="18.806" y2="18.0039" stroke="#F4F4F4" stroke-width="1.60404"/>
<line x1="23.5075" y1="18.0039" x2="25.0746" y2="18.0039" stroke="#F4F4F4" stroke-width="1.60404"/>
<line x1="29.7761" y1="18.0039" x2="31.3433" y2="18.0039" stroke="#F4F4F4" stroke-width="1.60404"/>
<line x1="6.26867" y1="21.1383" x2="7.83583" y2="21.1383" stroke="#CECECF" stroke-width="1.60404"/>
<line x1="12.5373" y1="21.1383" x2="14.1045" y2="21.1383" stroke="#CECECF" stroke-width="1.60404"/>
<line x1="18.806" y1="21.1383" x2="20.3732" y2="21.1383" stroke="#CECECF" stroke-width="1.60404"/>
<line x1="25.0746" y1="21.1383" x2="26.6418" y2="21.1383" stroke="#CECECF" stroke-width="1.60404"/>
<line x1="9.40301" y1="21.1383" x2="10.9702" y2="21.1383" stroke="#CECECF" stroke-width="1.60404"/>
<line x1="15.6717" y1="21.1383" x2="17.2388" y2="21.1383" stroke="#CECECF" stroke-width="1.60404"/>
<line x1="21.9403" y1="21.1383" x2="23.5075" y2="21.1383" stroke="#CECECF" stroke-width="1.60404"/>
<line x1="28.209" y1="21.1383" x2="29.7761" y2="21.1383" stroke="#CECECF" stroke-width="1.60404"/>
<line x1="7.83584" y1="21.1383" x2="9.40301" y2="21.1383" stroke="#F4F4F4" stroke-width="1.60404"/>
<line x1="14.1045" y1="21.1383" x2="15.6717" y2="21.1383" stroke="#F4F4F4" stroke-width="1.60404"/>
<line x1="20.3732" y1="21.1383" x2="21.9403" y2="21.1383" stroke="#F4F4F4" stroke-width="1.60404"/>
<line x1="26.6418" y1="21.1383" x2="28.209" y2="21.1383" stroke="#F4F4F4" stroke-width="1.60404"/>
<line x1="10.9702" y1="21.1383" x2="12.5373" y2="21.1383" stroke="#F4F4F4" stroke-width="1.60404"/>
<line x1="17.2388" y1="21.1383" x2="18.806" y2="21.1383" stroke="#F4F4F4" stroke-width="1.60404"/>
<line x1="23.5075" y1="21.1383" x2="25.0746" y2="21.1383" stroke="#F4F4F4" stroke-width="1.60404"/>
<line x1="29.7761" y1="21.1383" x2="31.3433" y2="21.1383" stroke="#F4F4F4" stroke-width="1.60404"/>
<line x1="7.83584" y1="10.1681" x2="9.40301" y2="10.1681" stroke="#CECECF" stroke-width="1.60404"/>
<line x1="14.1045" y1="10.1681" x2="15.6717" y2="10.1681" stroke="#CECECF" stroke-width="1.60404"/>
<line x1="20.3732" y1="10.1681" x2="21.9403" y2="10.1681" stroke="#CECECF" stroke-width="1.60404"/>
<line x1="26.6418" y1="10.1681" x2="28.209" y2="10.1681" stroke="#CECECF" stroke-width="1.60404"/>
<line x1="10.9702" y1="10.1681" x2="12.5373" y2="10.1681" stroke="#CECECF" stroke-width="1.60404"/>
<line x1="17.2388" y1="10.1681" x2="18.806" y2="10.1681" stroke="#CECECF" stroke-width="1.60404"/>
<line x1="23.5075" y1="10.1681" x2="25.0746" y2="10.1681" stroke="#CECECF" stroke-width="1.60404"/>
<line x1="29.7761" y1="10.1681" x2="31.3433" y2="10.1681" stroke="#CECECF" stroke-width="1.60404"/>
<line x1="9.40301" y1="10.1681" x2="10.9702" y2="10.1681" stroke="#F4F4F4" stroke-width="1.60404"/>
<line x1="15.6717" y1="10.1681" x2="17.2388" y2="10.1681" stroke="#F4F4F4" stroke-width="1.60404"/>
<line x1="21.9403" y1="10.1681" x2="23.5075" y2="10.1681" stroke="#F4F4F4" stroke-width="1.60404"/>
<line x1="28.209" y1="10.1681" x2="29.7761" y2="10.1681" stroke="#F4F4F4" stroke-width="1.60404"/>
<line x1="12.5373" y1="10.1681" x2="14.1045" y2="10.1681" stroke="#F4F4F4" stroke-width="1.60404"/>
<line x1="18.806" y1="10.1681" x2="20.3732" y2="10.1681" stroke="#F4F4F4" stroke-width="1.60404"/>
<line x1="25.0746" y1="10.1681" x2="26.6418" y2="10.1681" stroke="#F4F4F4" stroke-width="1.60404"/>
<line x1="6.26867" y1="10.1681" x2="7.83583" y2="10.1681" stroke="#F4F4F4" stroke-width="1.60404"/>
<line x1="7.83584" y1="13.3025" x2="9.40301" y2="13.3025" stroke="#CECECF" stroke-width="1.60404"/>
<line x1="26.6418" y1="13.3025" x2="28.209" y2="13.3025" stroke="#CECECF" stroke-width="1.60404"/>
<line x1="10.9702" y1="13.3025" x2="12.5373" y2="13.3025" stroke="#CECECF" stroke-width="1.60404"/>
<line x1="23.5075" y1="13.3025" x2="25.0746" y2="13.3025" stroke="#CECECF" stroke-width="1.60404"/>
<line x1="29.7761" y1="13.3025" x2="31.3433" y2="13.3025" stroke="#CECECF" stroke-width="1.60404"/>
<line x1="9.40301" y1="13.3025" x2="10.9702" y2="13.3025" stroke="#F4F4F4" stroke-width="1.60404"/>
<line x1="28.209" y1="13.3025" x2="29.7761" y2="13.3025" stroke="#F4F4F4" stroke-width="1.60404"/>
<line x1="12.5373" y1="13.3025" x2="14.1045" y2="13.3025" stroke="#F4F4F4" stroke-width="1.60404"/>
<line x1="25.0746" y1="13.3025" x2="26.6418" y2="13.3025" stroke="#F4F4F4" stroke-width="1.60404"/>
<line x1="6.26867" y1="13.3025" x2="7.83583" y2="13.3025" stroke="#F4F4F4" stroke-width="1.60404"/>
<line x1="7.83584" y1="16.4368" x2="9.40301" y2="16.4368" stroke="#CECECF" stroke-width="1.60404"/>
<line x1="14.1045" y1="16.4368" x2="15.6717" y2="16.4368" stroke="#CECECF" stroke-width="1.60404"/>
<line x1="20.3732" y1="16.4368" x2="21.9403" y2="16.4368" stroke="#CECECF" stroke-width="1.60404"/>
<line x1="26.6418" y1="16.4368" x2="28.209" y2="16.4368" stroke="#CECECF" stroke-width="1.60404"/>
<line x1="10.9702" y1="16.4368" x2="12.5373" y2="16.4368" stroke="#CECECF" stroke-width="1.60404"/>
<line x1="17.2388" y1="16.4368" x2="18.806" y2="16.4368" stroke="#CECECF" stroke-width="1.60404"/>
<line x1="23.5075" y1="16.4368" x2="25.0746" y2="16.4368" stroke="#CECECF" stroke-width="1.60404"/>
<line x1="29.7761" y1="16.4368" x2="31.3433" y2="16.4368" stroke="#CECECF" stroke-width="1.60404"/>
<line x1="9.40301" y1="16.4368" x2="10.9702" y2="16.4368" stroke="#F4F4F4" stroke-width="1.60404"/>
<line x1="15.6717" y1="16.4368" x2="17.2388" y2="16.4368" stroke="#F4F4F4" stroke-width="1.60404"/>
<line x1="21.9403" y1="16.4368" x2="23.5075" y2="16.4368" stroke="#F4F4F4" stroke-width="1.60404"/>
<line x1="28.209" y1="16.4368" x2="29.7761" y2="16.4368" stroke="#F4F4F4" stroke-width="1.60404"/>
<line x1="12.5373" y1="16.4368" x2="14.1045" y2="16.4368" stroke="#F4F4F4" stroke-width="1.60404"/>
<line x1="18.806" y1="16.4368" x2="20.3732" y2="16.4368" stroke="#F4F4F4" stroke-width="1.60404"/>
<line x1="25.0746" y1="16.4368" x2="26.6418" y2="16.4368" stroke="#F4F4F4" stroke-width="1.60404"/>
<line x1="6.26867" y1="16.4368" x2="7.83583" y2="16.4368" stroke="#F4F4F4" stroke-width="1.60404"/>
<line x1="7.83584" y1="19.5711" x2="9.40301" y2="19.5711" stroke="#CECECF" stroke-width="1.60404"/>
<line x1="14.1045" y1="19.5711" x2="15.6717" y2="19.5711" stroke="#CECECF" stroke-width="1.60404"/>
<line x1="20.3732" y1="19.5711" x2="21.9403" y2="19.5711" stroke="#CECECF" stroke-width="1.60404"/>
<line x1="26.6418" y1="19.5711" x2="28.209" y2="19.5711" stroke="#CECECF" stroke-width="1.60404"/>
<line x1="10.9702" y1="19.5711" x2="12.5373" y2="19.5711" stroke="#CECECF" stroke-width="1.60404"/>
<line x1="17.2388" y1="19.5711" x2="18.806" y2="19.5711" stroke="#CECECF" stroke-width="1.60404"/>
<line x1="23.5075" y1="19.5711" x2="25.0746" y2="19.5711" stroke="#CECECF" stroke-width="1.60404"/>
<line x1="29.7761" y1="19.5711" x2="31.3433" y2="19.5711" stroke="#CECECF" stroke-width="1.60404"/>
<line x1="9.40301" y1="19.5711" x2="10.9702" y2="19.5711" stroke="#F4F4F4" stroke-width="1.60404"/>
<line x1="15.6717" y1="19.5711" x2="17.2388" y2="19.5711" stroke="#F4F4F4" stroke-width="1.60404"/>
<line x1="21.9403" y1="19.5711" x2="23.5075" y2="19.5711" stroke="#F4F4F4" stroke-width="1.60404"/>
<line x1="28.209" y1="19.5711" x2="29.7761" y2="19.5711" stroke="#F4F4F4" stroke-width="1.60404"/>
<line x1="12.5373" y1="19.5711" x2="14.1045" y2="19.5711" stroke="#F4F4F4" stroke-width="1.60404"/>
<line x1="18.806" y1="19.5711" x2="20.3732" y2="19.5711" stroke="#F4F4F4" stroke-width="1.60404"/>
<line x1="25.0746" y1="19.5711" x2="26.6418" y2="19.5711" stroke="#F4F4F4" stroke-width="1.60404"/>
<line x1="6.26867" y1="19.5711" x2="7.83583" y2="19.5711" stroke="#F4F4F4" stroke-width="1.60404"/>
<line x1="7.83584" y1="22.7055" x2="9.40301" y2="22.7055" stroke="#CECECF" stroke-width="1.60404"/>
<line x1="14.1045" y1="22.7055" x2="15.6717" y2="22.7055" stroke="#CECECF" stroke-width="1.60404"/>
<line x1="20.3732" y1="22.7055" x2="21.9403" y2="22.7055" stroke="#CECECF" stroke-width="1.60404"/>
<line x1="26.6418" y1="22.7055" x2="28.209" y2="22.7055" stroke="#CECECF" stroke-width="1.60404"/>
<line x1="10.9702" y1="22.7055" x2="12.5373" y2="22.7055" stroke="#CECECF" stroke-width="1.60404"/>
<line x1="17.2388" y1="22.7055" x2="18.806" y2="22.7055" stroke="#CECECF" stroke-width="1.60404"/>
<line x1="23.5075" y1="22.7055" x2="25.0746" y2="22.7055" stroke="#CECECF" stroke-width="1.60404"/>
<line x1="29.7761" y1="22.7055" x2="31.3433" y2="22.7055" stroke="#CECECF" stroke-width="1.60404"/>
<line x1="9.40301" y1="22.7055" x2="10.9702" y2="22.7055" stroke="#F4F4F4" stroke-width="1.60404"/>
<line x1="15.6717" y1="22.7055" x2="17.2388" y2="22.7055" stroke="#F4F4F4" stroke-width="1.60404"/>
<line x1="21.9403" y1="22.7055" x2="23.5075" y2="22.7055" stroke="#F4F4F4" stroke-width="1.60404"/>
<line x1="28.209" y1="22.7055" x2="29.7761" y2="22.7055" stroke="#F4F4F4" stroke-width="1.60404"/>
<line x1="12.5373" y1="22.7055" x2="14.1045" y2="22.7055" stroke="#F4F4F4" stroke-width="1.60404"/>
<line x1="18.806" y1="22.7055" x2="20.3732" y2="22.7055" stroke="#F4F4F4" stroke-width="1.60404"/>
<line x1="25.0746" y1="22.7055" x2="26.6418" y2="22.7055" stroke="#F4F4F4" stroke-width="1.60404"/>
<line x1="6.26867" y1="22.7055" x2="7.83583" y2="22.7055" stroke="#F4F4F4" stroke-width="1.60404"/>
<line x1="6.26867" y1="8.60097" x2="7.83583" y2="8.60097" stroke="#CECECF" stroke-width="1.60404"/>
<line x1="12.5373" y1="8.60097" x2="14.1045" y2="8.60097" stroke="#CECECF" stroke-width="1.60404"/>
<line x1="18.806" y1="8.60097" x2="20.3732" y2="8.60097" stroke="#CECECF" stroke-width="1.60404"/>
<line x1="25.0746" y1="8.60097" x2="26.6418" y2="8.60097" stroke="#CECECF" stroke-width="1.60404"/>
<line x1="9.40301" y1="8.60097" x2="10.9702" y2="8.60097" stroke="#CECECF" stroke-width="1.60404"/>
<line x1="15.6717" y1="8.60097" x2="17.2388" y2="8.60097" stroke="#CECECF" stroke-width="1.60404"/>
<line x1="21.9403" y1="8.60097" x2="23.5075" y2="8.60097" stroke="#CECECF" stroke-width="1.60404"/>
<line x1="28.209" y1="8.60097" x2="29.7761" y2="8.60097" stroke="#CECECF" stroke-width="1.60404"/>
<line x1="7.83584" y1="8.60097" x2="9.40301" y2="8.60097" stroke="#F4F4F4" stroke-width="1.60404"/>
<line x1="14.1045" y1="8.60097" x2="15.6717" y2="8.60097" stroke="#F4F4F4" stroke-width="1.60404"/>
<line x1="20.3732" y1="8.60097" x2="21.9403" y2="8.60097" stroke="#F4F4F4" stroke-width="1.60404"/>
<line x1="26.6418" y1="8.60097" x2="28.209" y2="8.60097" stroke="#F4F4F4" stroke-width="1.60404"/>
<line x1="10.9702" y1="8.60097" x2="12.5373" y2="8.60097" stroke="#F4F4F4" stroke-width="1.60404"/>
<line x1="17.2388" y1="8.60097" x2="18.806" y2="8.60097" stroke="#F4F4F4" stroke-width="1.60404"/>
<line x1="23.5075" y1="8.60097" x2="25.0746" y2="8.60097" stroke="#F4F4F4" stroke-width="1.60404"/>
<line x1="29.7761" y1="8.60097" x2="31.3433" y2="8.60097" stroke="#F4F4F4" stroke-width="1.60404"/>
<line x1="6.26866" y1="5.46663" x2="7.83582" y2="5.46663" stroke="#CECECF" stroke-width="1.60404"/>
<line x1="12.5373" y1="5.46663" x2="14.1045" y2="5.46663" stroke="#CECECF" stroke-width="1.60404"/>
<line x1="18.806" y1="5.46663" x2="20.3731" y2="5.46663" stroke="#CECECF" stroke-width="1.60404"/>
<line x1="25.0746" y1="5.46663" x2="26.6418" y2="5.46663" stroke="#CECECF" stroke-width="1.60404"/>
<line x1="9.403" y1="5.46663" x2="10.9702" y2="5.46663" stroke="#CECECF" stroke-width="1.60404"/>
<line x1="15.6717" y1="5.46663" x2="17.2388" y2="5.46663" stroke="#CECECF" stroke-width="1.60404"/>
<line x1="21.9403" y1="5.46663" x2="23.5075" y2="5.46663" stroke="#CECECF" stroke-width="1.60404"/>
<line x1="28.209" y1="5.46663" x2="29.7761" y2="5.46663" stroke="#CECECF" stroke-width="1.60404"/>
<line x1="7.83583" y1="5.46663" x2="9.403" y2="5.46663" stroke="#F4F4F4" stroke-width="1.60404"/>
<line x1="14.1045" y1="5.46663" x2="15.6717" y2="5.46663" stroke="#F4F4F4" stroke-width="1.60404"/>
<line x1="20.3731" y1="5.46663" x2="21.9403" y2="5.46663" stroke="#F4F4F4" stroke-width="1.60404"/>
<line x1="26.6418" y1="5.46663" x2="28.209" y2="5.46663" stroke="#F4F4F4" stroke-width="1.60404"/>
<line x1="10.9702" y1="5.46663" x2="12.5373" y2="5.46663" stroke="#F4F4F4" stroke-width="1.60404"/>
<line x1="17.2388" y1="5.46663" x2="18.806" y2="5.46663" stroke="#F4F4F4" stroke-width="1.60404"/>
<line x1="23.5075" y1="5.46663" x2="25.0746" y2="5.46663" stroke="#F4F4F4" stroke-width="1.60404"/>
<line x1="29.7761" y1="5.46663" x2="31.3433" y2="5.46663" stroke="#F4F4F4" stroke-width="1.60404"/>
<line x1="7.83584" y1="7.03383" x2="9.40301" y2="7.03383" stroke="#CECECF" stroke-width="1.60404"/>
<line x1="14.1045" y1="7.03383" x2="15.6717" y2="7.03383" stroke="#CECECF" stroke-width="1.60404"/>
<line x1="20.3732" y1="7.03383" x2="21.9403" y2="7.03383" stroke="#CECECF" stroke-width="1.60404"/>
<line x1="26.6418" y1="7.03383" x2="28.209" y2="7.03383" stroke="#CECECF" stroke-width="1.60404"/>
<line x1="10.9702" y1="7.03383" x2="12.5373" y2="7.03383" stroke="#CECECF" stroke-width="1.60404"/>
<line x1="17.2388" y1="7.03383" x2="18.806" y2="7.03383" stroke="#CECECF" stroke-width="1.60404"/>
<line x1="23.5075" y1="7.03383" x2="25.0746" y2="7.03383" stroke="#CECECF" stroke-width="1.60404"/>
<line x1="29.7761" y1="7.03383" x2="31.3433" y2="7.03383" stroke="#CECECF" stroke-width="1.60404"/>
<line x1="9.40301" y1="7.03383" x2="10.9702" y2="7.03383" stroke="#F4F4F4" stroke-width="1.60404"/>
<line x1="15.6717" y1="7.03383" x2="17.2388" y2="7.03383" stroke="#F4F4F4" stroke-width="1.60404"/>
<line x1="21.9403" y1="7.03383" x2="23.5075" y2="7.03383" stroke="#F4F4F4" stroke-width="1.60404"/>
<line x1="28.209" y1="7.03383" x2="29.7761" y2="7.03383" stroke="#F4F4F4" stroke-width="1.60404"/>
<line x1="12.5373" y1="7.03383" x2="14.1045" y2="7.03383" stroke="#F4F4F4" stroke-width="1.60404"/>
<line x1="18.806" y1="7.03383" x2="20.3732" y2="7.03383" stroke="#F4F4F4" stroke-width="1.60404"/>
<line x1="25.0746" y1="7.03383" x2="26.6418" y2="7.03383" stroke="#F4F4F4" stroke-width="1.60404"/>
<line x1="6.26867" y1="7.03377" x2="7.83583" y2="7.03377" stroke="#F4F4F4" stroke-width="1.60404"/>
<line x1="6.26867" y1="35.2428" x2="7.83583" y2="35.2427" stroke="#CECECF" stroke-width="1.60404"/>
<line x1="12.5373" y1="35.2427" x2="14.1045" y2="35.2427" stroke="#CECECF" stroke-width="1.60404"/>
<line x1="25.0746" y1="35.2427" x2="26.6418" y2="35.2427" stroke="#CECECF" stroke-width="1.60404"/>
<line x1="9.40301" y1="35.2427" x2="10.9702" y2="35.2427" stroke="#CECECF" stroke-width="1.60404"/>
<line x1="28.209" y1="35.2427" x2="29.7761" y2="35.2427" stroke="#CECECF" stroke-width="1.60404"/>
<line x1="7.83584" y1="35.2427" x2="9.40301" y2="35.2427" stroke="#F4F4F4" stroke-width="1.60404"/>
<line x1="26.6418" y1="35.2427" x2="28.209" y2="35.2427" stroke="#F4F4F4" stroke-width="1.60404"/>
<line x1="10.9702" y1="35.2427" x2="12.5373" y2="35.2427" stroke="#F4F4F4" stroke-width="1.60404"/>
<line x1="23.5075" y1="35.2427" x2="25.0746" y2="35.2427" stroke="#F4F4F4" stroke-width="1.60404"/>
<line x1="29.7761" y1="35.2427" x2="31.3433" y2="35.2427" stroke="#F4F4F4" stroke-width="1.60404"/>
<line x1="6.26867" y1="38.3771" x2="7.83583" y2="38.3771" stroke="#CECECF" stroke-width="1.60404"/>
<line x1="12.5373" y1="38.3771" x2="14.1045" y2="38.3771" stroke="#CECECF" stroke-width="1.60404"/>
<line x1="25.0746" y1="38.3771" x2="26.6418" y2="38.3771" stroke="#CECECF" stroke-width="1.60404"/>
<line x1="9.40301" y1="38.3771" x2="10.9702" y2="38.3771" stroke="#CECECF" stroke-width="1.60404"/>
<line x1="28.209" y1="38.3771" x2="29.7761" y2="38.3771" stroke="#CECECF" stroke-width="1.60404"/>
<line x1="7.83584" y1="38.3771" x2="9.40301" y2="38.3771" stroke="#F4F4F4" stroke-width="1.60404"/>
<line x1="26.6418" y1="38.3771" x2="28.209" y2="38.3771" stroke="#F4F4F4" stroke-width="1.60404"/>
<line x1="10.9702" y1="38.3771" x2="12.5373" y2="38.3771" stroke="#F4F4F4" stroke-width="1.60404"/>
<line x1="23.5075" y1="38.3771" x2="25.0746" y2="38.3771" stroke="#F4F4F4" stroke-width="1.60404"/>
<line x1="29.7761" y1="38.3771" x2="31.3433" y2="38.3771" stroke="#F4F4F4" stroke-width="1.60404"/>
<line x1="6.26867" y1="41.5114" x2="7.83583" y2="41.5114" stroke="#CECECF" stroke-width="1.60404"/>
<line x1="12.5373" y1="41.5114" x2="14.1045" y2="41.5114" stroke="#CECECF" stroke-width="1.60404"/>
<line x1="18.806" y1="41.5114" x2="20.3732" y2="41.5114" stroke="#CECECF" stroke-width="1.60404"/>
<line x1="25.0746" y1="41.5114" x2="26.6418" y2="41.5114" stroke="#CECECF" stroke-width="1.60404"/>
<line x1="9.40301" y1="41.5114" x2="10.9702" y2="41.5114" stroke="#CECECF" stroke-width="1.60404"/>
<line x1="15.6717" y1="41.5114" x2="17.2388" y2="41.5114" stroke="#CECECF" stroke-width="1.60404"/>
<line x1="21.9403" y1="41.5114" x2="23.5075" y2="41.5114" stroke="#CECECF" stroke-width="1.60404"/>
<line x1="28.209" y1="41.5114" x2="29.7761" y2="41.5114" stroke="#CECECF" stroke-width="1.60404"/>
<line x1="7.83584" y1="41.5114" x2="9.40301" y2="41.5114" stroke="#F4F4F4" stroke-width="1.60404"/>
<line x1="14.1045" y1="41.5114" x2="15.6717" y2="41.5114" stroke="#F4F4F4" stroke-width="1.60404"/>
<line x1="20.3732" y1="41.5114" x2="21.9403" y2="41.5114" stroke="#F4F4F4" stroke-width="1.60404"/>
<line x1="26.6418" y1="41.5114" x2="28.209" y2="41.5114" stroke="#F4F4F4" stroke-width="1.60404"/>
<line x1="10.9702" y1="41.5114" x2="12.5373" y2="41.5114" stroke="#F4F4F4" stroke-width="1.60404"/>
<line x1="17.2388" y1="41.5114" x2="18.806" y2="41.5114" stroke="#F4F4F4" stroke-width="1.60404"/>
<line x1="23.5075" y1="41.5114" x2="25.0746" y2="41.5114" stroke="#F4F4F4" stroke-width="1.60404"/>
<line x1="29.7761" y1="41.5114" x2="31.3433" y2="41.5114" stroke="#F4F4F4" stroke-width="1.60404"/>
<line x1="6.26867" y1="44.6457" x2="7.83583" y2="44.6457" stroke="#CECECF" stroke-width="1.60404"/>
<line x1="12.5373" y1="44.6457" x2="14.1045" y2="44.6457" stroke="#CECECF" stroke-width="1.60404"/>
<line x1="18.806" y1="44.6457" x2="20.3732" y2="44.6457" stroke="#CECECF" stroke-width="1.60404"/>
<line x1="25.0746" y1="44.6457" x2="26.6418" y2="44.6457" stroke="#CECECF" stroke-width="1.60404"/>
<line x1="9.40301" y1="44.6457" x2="10.9702" y2="44.6457" stroke="#CECECF" stroke-width="1.60404"/>
<line x1="15.6717" y1="44.6457" x2="17.2388" y2="44.6457" stroke="#CECECF" stroke-width="1.60404"/>
<line x1="21.9403" y1="44.6457" x2="23.5075" y2="44.6457" stroke="#CECECF" stroke-width="1.60404"/>
<line x1="28.209" y1="44.6457" x2="29.7761" y2="44.6457" stroke="#CECECF" stroke-width="1.60404"/>
<line x1="7.83584" y1="44.6457" x2="9.40301" y2="44.6457" stroke="#F4F4F4" stroke-width="1.60404"/>
<line x1="14.1045" y1="44.6457" x2="15.6717" y2="44.6457" stroke="#F4F4F4" stroke-width="1.60404"/>
<line x1="20.3732" y1="44.6457" x2="21.9403" y2="44.6457" stroke="#F4F4F4" stroke-width="1.60404"/>
<line x1="26.6418" y1="44.6457" x2="28.209" y2="44.6457" stroke="#F4F4F4" stroke-width="1.60404"/>
<line x1="10.9702" y1="44.6457" x2="12.5373" y2="44.6457" stroke="#F4F4F4" stroke-width="1.60404"/>
<line x1="17.2388" y1="44.6457" x2="18.806" y2="44.6457" stroke="#F4F4F4" stroke-width="1.60404"/>
<line x1="23.5075" y1="44.6457" x2="25.0746" y2="44.6457" stroke="#F4F4F4" stroke-width="1.60404"/>
<line x1="29.7761" y1="44.6457" x2="31.3433" y2="44.6457" stroke="#F4F4F4" stroke-width="1.60404"/>
<line x1="7.83584" y1="33.6756" x2="9.40301" y2="33.6756" stroke="#CECECF" stroke-width="1.60404"/>
<line x1="14.1045" y1="33.6756" x2="15.6717" y2="33.6756" stroke="#CECECF" stroke-width="1.60404"/>
<line x1="20.3732" y1="33.6756" x2="21.9403" y2="33.6756" stroke="#CECECF" stroke-width="1.60404"/>
<line x1="26.6418" y1="33.6756" x2="28.209" y2="33.6756" stroke="#CECECF" stroke-width="1.60404"/>
<line x1="10.9702" y1="33.6756" x2="12.5373" y2="33.6756" stroke="#CECECF" stroke-width="1.60404"/>
<line x1="17.2388" y1="33.6756" x2="18.806" y2="33.6756" stroke="#CECECF" stroke-width="1.60404"/>
<line x1="23.5075" y1="33.6756" x2="25.0746" y2="33.6756" stroke="#CECECF" stroke-width="1.60404"/>
<line x1="29.7761" y1="33.6756" x2="31.3433" y2="33.6756" stroke="#CECECF" stroke-width="1.60404"/>
<line x1="9.40301" y1="33.6756" x2="10.9702" y2="33.6756" stroke="#F4F4F4" stroke-width="1.60404"/>
<line x1="15.6717" y1="33.6756" x2="17.2388" y2="33.6756" stroke="#F4F4F4" stroke-width="1.60404"/>
<line x1="21.9403" y1="33.6756" x2="23.5075" y2="33.6756" stroke="#F4F4F4" stroke-width="1.60404"/>
<line x1="28.209" y1="33.6756" x2="29.7761" y2="33.6756" stroke="#F4F4F4" stroke-width="1.60404"/>
<line x1="12.5373" y1="33.6756" x2="14.1045" y2="33.6756" stroke="#F4F4F4" stroke-width="1.60404"/>
<line x1="18.806" y1="33.6756" x2="20.3732" y2="33.6756" stroke="#F4F4F4" stroke-width="1.60404"/>
<line x1="25.0746" y1="33.6756" x2="26.6418" y2="33.6756" stroke="#F4F4F4" stroke-width="1.60404"/>
<line x1="6.26867" y1="33.6756" x2="7.83583" y2="33.6756" stroke="#F4F4F4" stroke-width="1.60404"/>
<line x1="7.83584" y1="36.8099" x2="9.40301" y2="36.8099" stroke="#CECECF" stroke-width="1.60404"/>
<line x1="26.6418" y1="36.8099" x2="28.209" y2="36.8099" stroke="#CECECF" stroke-width="1.60404"/>
<line x1="10.9702" y1="36.8099" x2="12.5373" y2="36.8099" stroke="#CECECF" stroke-width="1.60404"/>
<line x1="23.5075" y1="36.8099" x2="25.0746" y2="36.8099" stroke="#CECECF" stroke-width="1.60404"/>
<line x1="29.7761" y1="36.8099" x2="31.3433" y2="36.8099" stroke="#CECECF" stroke-width="1.60404"/>
<line x1="9.40301" y1="36.8099" x2="10.9702" y2="36.8099" stroke="#F4F4F4" stroke-width="1.60404"/>
<line x1="28.209" y1="36.8099" x2="29.7761" y2="36.8099" stroke="#F4F4F4" stroke-width="1.60404"/>
<line x1="12.5373" y1="36.8099" x2="14.1045" y2="36.8099" stroke="#F4F4F4" stroke-width="1.60404"/>
<line x1="25.0746" y1="36.8099" x2="26.6418" y2="36.8099" stroke="#F4F4F4" stroke-width="1.60404"/>
<line x1="6.26867" y1="36.8099" x2="7.83583" y2="36.8099" stroke="#F4F4F4" stroke-width="1.60404"/>
<line x1="7.83584" y1="39.9442" x2="9.40301" y2="39.9442" stroke="#CECECF" stroke-width="1.60404"/>
<line x1="14.1045" y1="39.9442" x2="15.6717" y2="39.9442" stroke="#CECECF" stroke-width="1.60404"/>
<line x1="20.3732" y1="39.9442" x2="21.9403" y2="39.9442" stroke="#CECECF" stroke-width="1.60404"/>
<line x1="26.6418" y1="39.9442" x2="28.209" y2="39.9442" stroke="#CECECF" stroke-width="1.60404"/>
<line x1="10.9702" y1="39.9442" x2="12.5373" y2="39.9442" stroke="#CECECF" stroke-width="1.60404"/>
<line x1="17.2388" y1="39.9442" x2="18.806" y2="39.9442" stroke="#CECECF" stroke-width="1.60404"/>
<line x1="23.5075" y1="39.9442" x2="25.0746" y2="39.9442" stroke="#CECECF" stroke-width="1.60404"/>
<line x1="29.7761" y1="39.9442" x2="31.3433" y2="39.9442" stroke="#CECECF" stroke-width="1.60404"/>
<line x1="9.40301" y1="39.9442" x2="10.9702" y2="39.9442" stroke="#F4F4F4" stroke-width="1.60404"/>
<line x1="15.6717" y1="39.9442" x2="17.2388" y2="39.9442" stroke="#F4F4F4" stroke-width="1.60404"/>
<line x1="21.9403" y1="39.9442" x2="23.5075" y2="39.9442" stroke="#F4F4F4" stroke-width="1.60404"/>
<line x1="28.209" y1="39.9442" x2="29.7761" y2="39.9442" stroke="#F4F4F4" stroke-width="1.60404"/>
<line x1="12.5373" y1="39.9442" x2="14.1045" y2="39.9442" stroke="#F4F4F4" stroke-width="1.60404"/>
<line x1="18.806" y1="39.9442" x2="20.3732" y2="39.9442" stroke="#F4F4F4" stroke-width="1.60404"/>
<line x1="25.0746" y1="39.9442" x2="26.6418" y2="39.9442" stroke="#F4F4F4" stroke-width="1.60404"/>
<line x1="6.26867" y1="39.9442" x2="7.83583" y2="39.9442" stroke="#F4F4F4" stroke-width="1.60404"/>
<line x1="7.83584" y1="43.0786" x2="9.40301" y2="43.0786" stroke="#CECECF" stroke-width="1.60404"/>
<line x1="14.1045" y1="43.0786" x2="15.6717" y2="43.0786" stroke="#CECECF" stroke-width="1.60404"/>
<line x1="20.3732" y1="43.0786" x2="21.9403" y2="43.0786" stroke="#CECECF" stroke-width="1.60404"/>
<line x1="26.6418" y1="43.0786" x2="28.209" y2="43.0786" stroke="#CECECF" stroke-width="1.60404"/>
<line x1="10.9702" y1="43.0786" x2="12.5373" y2="43.0786" stroke="#CECECF" stroke-width="1.60404"/>
<line x1="17.2388" y1="43.0786" x2="18.806" y2="43.0786" stroke="#CECECF" stroke-width="1.60404"/>
<line x1="23.5075" y1="43.0786" x2="25.0746" y2="43.0786" stroke="#CECECF" stroke-width="1.60404"/>
<line x1="29.7761" y1="43.0786" x2="31.3433" y2="43.0786" stroke="#CECECF" stroke-width="1.60404"/>
<line x1="9.40301" y1="43.0786" x2="10.9702" y2="43.0786" stroke="#F4F4F4" stroke-width="1.60404"/>
<line x1="15.6717" y1="43.0786" x2="17.2388" y2="43.0786" stroke="#F4F4F4" stroke-width="1.60404"/>
<line x1="21.9403" y1="43.0786" x2="23.5075" y2="43.0786" stroke="#F4F4F4" stroke-width="1.60404"/>
<line x1="28.209" y1="43.0786" x2="29.7761" y2="43.0786" stroke="#F4F4F4" stroke-width="1.60404"/>
<line x1="12.5373" y1="43.0786" x2="14.1045" y2="43.0786" stroke="#F4F4F4" stroke-width="1.60404"/>
<line x1="18.806" y1="43.0786" x2="20.3732" y2="43.0786" stroke="#F4F4F4" stroke-width="1.60404"/>
<line x1="25.0746" y1="43.0786" x2="26.6418" y2="43.0786" stroke="#F4F4F4" stroke-width="1.60404"/>
<line x1="6.26867" y1="43.0786" x2="7.83583" y2="43.0786" stroke="#F4F4F4" stroke-width="1.60404"/>
<line x1="7.83584" y1="46.2129" x2="9.40301" y2="46.2129" stroke="#CECECF" stroke-width="1.60404"/>
<line x1="14.1045" y1="46.2129" x2="15.6717" y2="46.2129" stroke="#CECECF" stroke-width="1.60404"/>
<line x1="20.3732" y1="46.2129" x2="21.9403" y2="46.2129" stroke="#CECECF" stroke-width="1.60404"/>
<line x1="26.6418" y1="46.2129" x2="28.209" y2="46.2129" stroke="#CECECF" stroke-width="1.60404"/>
<line x1="10.9702" y1="46.2129" x2="12.5373" y2="46.2129" stroke="#CECECF" stroke-width="1.60404"/>
<line x1="17.2388" y1="46.2129" x2="18.806" y2="46.2129" stroke="#CECECF" stroke-width="1.60404"/>
<line x1="23.5075" y1="46.2129" x2="25.0746" y2="46.2129" stroke="#CECECF" stroke-width="1.60404"/>
<line x1="29.7761" y1="46.2129" x2="31.3433" y2="46.2129" stroke="#CECECF" stroke-width="1.60404"/>
<line x1="9.40301" y1="46.2129" x2="10.9702" y2="46.2129" stroke="#F4F4F4" stroke-width="1.60404"/>
<line x1="15.6717" y1="46.2129" x2="17.2388" y2="46.2129" stroke="#F4F4F4" stroke-width="1.60404"/>
<line x1="21.9403" y1="46.2129" x2="23.5075" y2="46.2129" stroke="#F4F4F4" stroke-width="1.60404"/>
<line x1="28.209" y1="46.2129" x2="29.7761" y2="46.2129" stroke="#F4F4F4" stroke-width="1.60404"/>
<line x1="12.5373" y1="46.2129" x2="14.1045" y2="46.2129" stroke="#F4F4F4" stroke-width="1.60404"/>
<line x1="18.806" y1="46.2129" x2="20.3732" y2="46.2129" stroke="#F4F4F4" stroke-width="1.60404"/>
<line x1="25.0746" y1="46.2129" x2="26.6418" y2="46.2129" stroke="#F4F4F4" stroke-width="1.60404"/>
<line x1="6.26867" y1="46.2129" x2="7.83583" y2="46.2129" stroke="#F4F4F4" stroke-width="1.60404"/>
<line x1="6.26867" y1="32.1084" x2="7.83583" y2="32.1084" stroke="#CECECF" stroke-width="1.60404"/>
<line x1="12.5373" y1="32.1084" x2="14.1045" y2="32.1084" stroke="#CECECF" stroke-width="1.60404"/>
<line x1="18.806" y1="32.1084" x2="20.3732" y2="32.1084" stroke="#CECECF" stroke-width="1.60404"/>
<line x1="25.0746" y1="32.1084" x2="26.6418" y2="32.1084" stroke="#CECECF" stroke-width="1.60404"/>
<line x1="9.40301" y1="32.1084" x2="10.9702" y2="32.1084" stroke="#CECECF" stroke-width="1.60404"/>
<line x1="15.6717" y1="32.1084" x2="17.2388" y2="32.1084" stroke="#CECECF" stroke-width="1.60404"/>
<line x1="21.9403" y1="32.1084" x2="23.5075" y2="32.1084" stroke="#CECECF" stroke-width="1.60404"/>
<line x1="28.209" y1="32.1084" x2="29.7761" y2="32.1084" stroke="#CECECF" stroke-width="1.60404"/>
<line x1="7.83584" y1="32.1084" x2="9.40301" y2="32.1084" stroke="#F4F4F4" stroke-width="1.60404"/>
<line x1="14.1045" y1="32.1084" x2="15.6717" y2="32.1084" stroke="#F4F4F4" stroke-width="1.60404"/>
<line x1="20.3732" y1="32.1084" x2="21.9403" y2="32.1084" stroke="#F4F4F4" stroke-width="1.60404"/>
<line x1="26.6418" y1="32.1084" x2="28.209" y2="32.1084" stroke="#F4F4F4" stroke-width="1.60404"/>
<line x1="10.9702" y1="32.1084" x2="12.5373" y2="32.1084" stroke="#F4F4F4" stroke-width="1.60404"/>
<line x1="17.2388" y1="32.1084" x2="18.806" y2="32.1084" stroke="#F4F4F4" stroke-width="1.60404"/>
<line x1="23.5075" y1="32.1084" x2="25.0746" y2="32.1084" stroke="#F4F4F4" stroke-width="1.60404"/>
<line x1="29.7761" y1="32.1084" x2="31.3433" y2="32.1084" stroke="#F4F4F4" stroke-width="1.60404"/>
<line x1="6.26866" y1="28.9741" x2="7.83582" y2="28.9741" stroke="#CECECF" stroke-width="1.60404"/>
<line x1="12.5373" y1="28.9741" x2="14.1045" y2="28.9741" stroke="#CECECF" stroke-width="1.60404"/>
<line x1="18.806" y1="28.9741" x2="20.3731" y2="28.9741" stroke="#CECECF" stroke-width="1.60404"/>
<line x1="25.0746" y1="28.9741" x2="26.6418" y2="28.9741" stroke="#CECECF" stroke-width="1.60404"/>
<line x1="9.403" y1="28.9741" x2="10.9702" y2="28.9741" stroke="#CECECF" stroke-width="1.60404"/>
<line x1="15.6717" y1="28.9741" x2="17.2388" y2="28.9741" stroke="#CECECF" stroke-width="1.60404"/>
<line x1="21.9403" y1="28.9741" x2="23.5075" y2="28.9741" stroke="#CECECF" stroke-width="1.60404"/>
<line x1="28.209" y1="28.9741" x2="29.7761" y2="28.9741" stroke="#CECECF" stroke-width="1.60404"/>
<line x1="7.83583" y1="28.9741" x2="9.403" y2="28.9741" stroke="#F4F4F4" stroke-width="1.60404"/>
<line x1="14.1045" y1="28.9741" x2="15.6717" y2="28.9741" stroke="#F4F4F4" stroke-width="1.60404"/>
<line x1="20.3731" y1="28.9741" x2="21.9403" y2="28.9741" stroke="#F4F4F4" stroke-width="1.60404"/>
<line x1="26.6418" y1="28.9741" x2="28.209" y2="28.9741" stroke="#F4F4F4" stroke-width="1.60404"/>
<line x1="10.9702" y1="28.9741" x2="12.5373" y2="28.9741" stroke="#F4F4F4" stroke-width="1.60404"/>
<line x1="17.2388" y1="28.9741" x2="18.806" y2="28.9741" stroke="#F4F4F4" stroke-width="1.60404"/>
<line x1="23.5075" y1="28.9741" x2="25.0746" y2="28.9741" stroke="#F4F4F4" stroke-width="1.60404"/>
<line x1="29.7761" y1="28.9741" x2="31.3433" y2="28.9741" stroke="#F4F4F4" stroke-width="1.60404"/>
<line x1="7.83584" y1="30.5413" x2="9.40301" y2="30.5413" stroke="#CECECF" stroke-width="1.60404"/>
<line x1="14.1045" y1="30.5413" x2="15.6717" y2="30.5413" stroke="#CECECF" stroke-width="1.60404"/>
<line x1="20.3732" y1="30.5413" x2="21.9403" y2="30.5413" stroke="#CECECF" stroke-width="1.60404"/>
<line x1="26.6418" y1="30.5413" x2="28.209" y2="30.5413" stroke="#CECECF" stroke-width="1.60404"/>
<line x1="10.9702" y1="30.5413" x2="12.5373" y2="30.5413" stroke="#CECECF" stroke-width="1.60404"/>
<line x1="17.2388" y1="30.5413" x2="18.806" y2="30.5413" stroke="#CECECF" stroke-width="1.60404"/>
<line x1="23.5075" y1="30.5413" x2="25.0746" y2="30.5413" stroke="#CECECF" stroke-width="1.60404"/>
<line x1="29.7761" y1="30.5413" x2="31.3433" y2="30.5413" stroke="#CECECF" stroke-width="1.60404"/>
<line x1="9.40301" y1="30.5413" x2="10.9702" y2="30.5413" stroke="#F4F4F4" stroke-width="1.60404"/>
<line x1="15.6717" y1="30.5413" x2="17.2388" y2="30.5413" stroke="#F4F4F4" stroke-width="1.60404"/>
<line x1="21.9403" y1="30.5413" x2="23.5075" y2="30.5413" stroke="#F4F4F4" stroke-width="1.60404"/>
<line x1="28.209" y1="30.5413" x2="29.7761" y2="30.5413" stroke="#F4F4F4" stroke-width="1.60404"/>
<line x1="12.5373" y1="30.5413" x2="14.1045" y2="30.5413" stroke="#F4F4F4" stroke-width="1.60404"/>
<line x1="18.806" y1="30.5413" x2="20.3732" y2="30.5413" stroke="#F4F4F4" stroke-width="1.60404"/>
<line x1="25.0746" y1="30.5413" x2="26.6418" y2="30.5413" stroke="#F4F4F4" stroke-width="1.60404"/>
<line x1="6.26867" y1="30.5413" x2="7.83583" y2="30.5413" stroke="#F4F4F4" stroke-width="1.60404"/>
<rect x="0.802019" y="0.802019" width="36.0079" height="51.6795" stroke="#323232" stroke-width="1.60404"/>
<rect x="2.36918" y="2.36919" width="32.8736" height="48.5452" stroke="#AAAAAA" stroke-width="1.60404"/>
<rect x="3.93635" y="3.93636" width="29.7392" height="45.4109" stroke="#CCCCCC" stroke-width="1.60404"/>
<line x1="1.56717" y1="25.8398" x2="36.0448" y2="25.8398" stroke="#AAAAAA" stroke-width="1.60404"/>
<line x1="5.50351" y1="4.70151" x2="5.50351" y2="25.0746" stroke="#797979" stroke-width="1.60404"/>
<line x1="32.9104" y1="24.3095" x2="4.7015" y2="24.3095" stroke="#797979" stroke-width="1.60404"/>
<line x1="32.9104" y1="47.8169" x2="4.7015" y2="47.8169" stroke="#797979" stroke-width="1.60404"/>
<line x1="5.50351" y1="26.6418" x2="5.50351" y2="48.5821" stroke="#797979" stroke-width="1.60404"/>
<line x1="32.1453" y1="4.70151" x2="32.1453" y2="25.0746" stroke="#797979" stroke-width="1.60404"/>
<line x1="32.1453" y1="28.209" x2="32.1453" y2="48.5821" stroke="#797979" stroke-width="1.60404"/>
<line x1="12.5373" y1="33.6756" x2="25.0746" y2="33.6756" stroke="#B2B2B2" stroke-width="1.60404"/>
<line x1="12.5373" y1="10.1681" x2="25.0746" y2="10.1681" stroke="#B2B2B2" stroke-width="1.60404"/>
<rect x="13.3393" y="11.7722" width="10.9333" height="4.66462" stroke="#656565" stroke-width="1.60404"/>
<rect x="13.3393" y="35.2796" width="10.9333" height="4.66462" stroke="#656565" stroke-width="1.60404"/>
<line x1="14.1045" y1="14.8696" x2="23.5075" y2="14.8696" stroke="#9999A5" stroke-width="1.60404"/>
<line x1="14.1045" y1="38.3771" x2="23.5075" y2="38.3771" stroke="#9999A5" stroke-width="1.60404"/>
</svg>
